<?xml version="1.0" encoding="UTF-8" standalone="no"?>
<svg
   xmlns:dc="http://purl.org/dc/elements/1.1/"
   xmlns:cc="http://creativecommons.org/ns#"
   xmlns:rdf="http://www.w3.org/1999/02/22-rdf-syntax-ns#"
   xmlns:svg="http://www.w3.org/2000/svg"
   xmlns="http://www.w3.org/2000/svg"
   xmlns:sodipodi="http://sodipodi.sourceforge.net/DTD/sodipodi-0.dtd"
   xmlns:inkscape="http://www.inkscape.org/namespaces/inkscape"
   id="Layer_1"
   version="1.1"
   viewBox="0 0 512 299"
   xml:space="preserve"
   sodipodi:docname="australia.svg"
   width="512"
   height="299"
   inkscape:version="0.92.3 (2405546, 2018-03-11)"><metadata
     id="metadata25"><rdf:RDF><cc:Work
         rdf:about=""><dc:format>image/svg+xml</dc:format><dc:type
           rdf:resource="http://purl.org/dc/dcmitype/StillImage" /><dc:title></dc:title></cc:Work></rdf:RDF></metadata><defs
     id="defs23" /><sodipodi:namedview
     pagecolor="#ffffff"
     bordercolor="#666666"
     borderopacity="1"
     objecttolerance="10"
     gridtolerance="10"
     guidetolerance="10"
     inkscape:pageopacity="0"
     inkscape:pageshadow="2"
     inkscape:window-width="1920"
     inkscape:window-height="1016"
     id="namedview21"
     showgrid="false"
     inkscape:zoom="0.4609375"
     inkscape:cx="260.33898"
     inkscape:cy="256"
     inkscape:window-x="0"
     inkscape:window-y="27"
     inkscape:window-maximized="1"
     inkscape:current-layer="Layer_1" /><style
     type="text/css"
     id="style2">
	.st0{fill:#2C2A7C;}
	.st1{fill:#FFFFFF;}
	.st2{fill:#E91E26;}
</style><g
     id="XMLID_1_"
     transform="matrix(1,0,0,1.0010043,0,-106.80715)"><rect
       class="st0"
       height="298.70001"
       id="XMLID_16_"
       width="512"
       y="106.7"
       x="0"
       style="fill:#2c2a7c" /><polygon
       class="st1"
       id="XMLID_15_"
       points="174.1,339 148.7,341.3 152.2,366.5 134.7,348 117.2,366.5 120.7,341.3 95.3,339 117.2,326.1 103.1,304.9 126.9,313.9 134.7,289.6 142.5,313.9 166.3,304.9 152.2,326.1 "
       style="fill:#ffffff" /><polygon
       class="st1"
       id="XMLID_14_"
       points="422.9,356.8 410.8,357.8 412.4,369.8 404.1,361 395.7,369.8 397.4,357.8 385.3,356.8 395.8,350.6 389,340.5 400.4,344.8 404.1,333.3 407.8,344.8 419.1,340.5 412.4,350.6 "
       style="fill:#ffffff" /><polygon
       class="st1"
       id="XMLID_13_"
       points="355.5,250.1 343.4,251.2 345.1,263.2 336.7,254.4 328.4,263.2 330.1,251.2 318,250.1 328.4,244 321.7,233.9 333,238.2 336.7,226.6 340.5,238.2 351.8,233.9 345.1,244 "
       style="fill:#ffffff" /><polygon
       class="st1"
       id="XMLID_12_"
       points="422.9,177.2 410.8,178.3 412.4,190.3 404.1,181.5 395.7,190.3 397.4,178.3 385.3,177.2 395.8,171 389,160.9 400.4,165.2 404.1,153.7 407.8,165.2 419.1,160.9 412.4,171 "
       style="fill:#ffffff" /><polygon
       class="st1"
       id="XMLID_11_"
       points="482.7,232.2 470.6,233.3 472.3,245.3 464,236.5 455.6,245.3 457.3,233.3 445.2,232.2 455.6,226 448.9,215.9 460.2,220.2 464,208.7 467.7,220.2 479,215.9 472.3,226 "
       style="fill:#ffffff" /><polygon
       class="st1"
       id="XMLID_10_"
       points="437.6,283 431,278.9 424.4,283 426.3,275.5 420.4,270.5 428.1,269.9 431,262.7 434,269.9 441.7,270.5 435.8,275.5 "
       style="fill:#ffffff" /><polygon
       class="st1"
       id="XMLID_9_"
       points="112.2,196.5 112.2,241.4 157.1,241.4 157.1,196.5 269.4,196.5 269.4,151.6 157.1,151.6 157.1,106.7 112.2,106.7 112.2,151.6 0,151.6 0,196.5 "
       style="fill:#ffffff" /><polygon
       class="st1"
       id="XMLID_8_"
       points="269.4,226.3 30.1,106.7 0,106.7 0,121.7 239.3,241.4 269.4,241.4 "
       style="fill:#ffffff" /><polygon
       class="st1"
       id="XMLID_7_"
       points="269.4,121.7 269.4,106.7 239.3,106.7 0,226.3 0,241.4 30.1,241.4 "
       style="fill:#ffffff" /><polygon
       class="st2"
       id="XMLID_6_"
       points="121.2,187.5 121.2,241.4 148.2,241.4 148.2,187.5 269.4,187.5 269.4,160.5 148.2,160.5 148.2,106.7 121.2,106.7 121.2,160.5 0,160.5 0,187.5 "
       style="fill:#e91e26" /><path
       class="st2"
       d="m 0,106.7 v 10 l 69.7,34.8 h 20.1 z m 249.3,0 -89.8,44.9 h 20.1 l 89.8,-44.9 z"
       id="path15"
       inkscape:connector-curvature="0"
       style="fill:#e91e26" /><path
       class="st2"
       d="M 89.8,196.5 0,241.4 h 20.1 l 89.8,-44.9 z m 89.8,0 89.8,44.9 v -10 l -69.7,-34.9 z"
       id="path17"
       inkscape:connector-curvature="0"
       style="fill:#e91e26" /></g></svg>