<?xml version="1.0" encoding="UTF-8" standalone="no"?>
<svg
   xmlns:dc="http://purl.org/dc/elements/1.1/"
   xmlns:cc="http://creativecommons.org/ns#"
   xmlns:rdf="http://www.w3.org/1999/02/22-rdf-syntax-ns#"
   xmlns:svg="http://www.w3.org/2000/svg"
   xmlns="http://www.w3.org/2000/svg"
   xmlns:sodipodi="http://sodipodi.sourceforge.net/DTD/sodipodi-0.dtd"
   xmlns:inkscape="http://www.inkscape.org/namespaces/inkscape"
   id="Layer_1"
   version="1.1"
   viewBox="0 0 512 299"
   xml:space="preserve"
   sodipodi:docname="lebanon.svg"
   width="512"
   height="299"
   inkscape:version="0.92.3 (2405546, 2018-03-11)"><metadata
     id="metadata865"><rdf:RDF><cc:Work
         rdf:about=""><dc:format>image/svg+xml</dc:format><dc:type
           rdf:resource="http://purl.org/dc/dcmitype/StillImage" /><dc:title></dc:title></cc:Work></rdf:RDF></metadata><defs
     id="defs863" /><sodipodi:namedview
     pagecolor="#ffffff"
     bordercolor="#666666"
     borderopacity="1"
     objecttolerance="10"
     gridtolerance="10"
     guidetolerance="10"
     inkscape:pageopacity="0"
     inkscape:pageshadow="2"
     inkscape:window-width="1920"
     inkscape:window-height="1016"
     id="namedview861"
     showgrid="false"
     inkscape:zoom="0.4609375"
     inkscape:cx="260.33898"
     inkscape:cy="256"
     inkscape:window-x="0"
     inkscape:window-y="27"
     inkscape:window-maximized="1"
     inkscape:current-layer="Layer_1" /><style
     type="text/css"
     id="style848">
	.st0{fill:#FFFFFF;}
	.st1{fill:#E63833;}
	.st2{fill:#42A047;}
</style><g
     id="g858"
     transform="matrix(1,0,0,1.0010043,0,-106.80715)"><rect
       class="st0"
       height="298.70001"
       width="512"
       y="106.7"
       id="rect850"
       x="0"
       style="fill:#ffffff" /><rect
       class="st1"
       height="74.699997"
       width="512"
       y="330.70001"
       id="rect852"
       x="0"
       style="fill:#e63833" /><rect
       class="st1"
       height="74.699997"
       width="512"
       y="106.7"
       id="rect854"
       x="0"
       style="fill:#e63833" /><path
       class="st2"
       d="m 254,181.3 -2.4,4.1 c -1.3,2.2 -4.6,5.6 -7.2,7.5 -2.6,1.9 -5.8,4.6 -7.1,6.2 l -2.3,2.8 2.4,-0.6 c 1.3,-0.3 3.1,-0.9 3.9,-1.3 0.8,-0.3 1.5,-0.2 1.5,0.4 0,0 0,0 0,0.1 0,0 0,0.1 0,0.1 -0.3,1.4 -4.6,4.7 -7.9,6.1 -3.2,1.3 -7.9,4.8 -8.5,6.2 0,0 0,0.1 0,0.1 0,0 0,0 0,0.1 0,0 0,0 0,0.1 0,0 0,0 0,0 v 0 c 0,0 0,0 0,0 0,0 0,0 0,0 0,0 0,0 0,0.1 0,0 0,0 0,0 0,0 0,0 0,0 0,0 0,0 0,0 0,0 0,0 0,0 0,0 0,0 0,0 0.4,0.3 1.4,0.3 2.6,0 2.1,-0.5 2.9,-0.2 3.6,1.2 1,2.2 0.4,3.1 -2,3.1 -2.9,0 -7.1,2.9 -7.7,5.4 -0.4,1.7 -2,3 -5.4,4.6 -5.6,2.6 -12.8,7.5 -13.3,9 0,0 0,0.1 0,0.1 0,2.1 4.7,2 11.6,-0.4 1.5,-0.5 2.2,0 3.4,2.6 1.4,3.3 1.4,3.3 -1.9,7.6 -2.3,3 -4.4,4.5 -6.6,5 -4.4,0.9 -5.8,1.8 -11.5,7.6 -2.7,2.7 -5.5,5 -6.1,5 -0.2,0 -0.4,0 -0.5,0.1 0,0 0,0 0,0 0,0 0,0 0,0 v 0 0 c 0,0 0,0 0,0 0,0 0,0 0,0 0,0 0,0 0,0 0,0 0,0 0,0 0,0 0,0 0,0 0,0 0,0 0,0 0,0 0,0 0,0.1 0,0 0,0 0,0 0,0 0,0 0,0 0.5,0.8 3.5,2.5 5.2,2.5 1.3,0 4.3,-1.4 6.8,-3.2 4.3,-3.1 4.5,-3.1 6.3,-1.4 1,1 1.8,2.9 1.8,4.3 0,2 -1.1,3 -6.8,5.9 -4.2,2.1 -9.1,5.8 -13,9.7 -5.2,5.2 -6.6,6.1 -8.8,5.8 -1.4,-0.2 -2.2,-0.3 -2.4,-0.2 0,0 0,0 0,0 0,0 0,0 0,0 0,0 0,0 0,0 0,0 0,0.1 0,0.1 0,0.3 0.5,0.8 1.3,1.7 0.8,0.9 2.6,1.6 4.1,1.6 4,0 16.5,-4.7 20.4,-7.6 3.6,-2.7 7.1,-3.2 10,-1.5 4.5,2.6 -3,7.9 -17.1,12.1 -5.2,1.5 -9.7,3 -10.2,3.4 0,0 0,0 0,0 v 0 c 0,0 0,0 0,0 0,0 0,0 0,0 -0.2,0.3 0.1,1.2 0.7,2 1.5,1.9 8.9,2 15.2,0.2 2.5,-0.8 8.8,-3.3 14,-5.6 9.4,-4.3 9.4,-4.2 12.7,-2.5 7.6,4 6.9,10.9 -2.2,22.4 -4,5 -7.5,7.2 -13.9,8.8 -2.4,0.6 -7.3,5.2 -7.3,6.8 0,0.2 0,0.3 0.1,0.4 h 1.6 c 0.4,-0.3 0.7,-0.6 1.1,-1.1 2,-2.7 6.1,-4.5 10.2,-4.5 4.5,0 10,-2.5 14.1,-6.3 3.6,-3.4 7.3,-4.4 10,-2.8 1.5,0.9 2.9,1 4.7,0.3 3.3,-1.2 4.9,-0.6 4.9,1.8 0,1.1 1.2,2.6 2.7,3.5 1.5,0.9 4.2,3 6,4.7 1.3,1.3 2.3,1.9 2.8,1.9 0,0 0.1,0 0.1,0 0,0 0,0 0,0 0,0 0,0 0.1,0 0,0 0,0 0,0 0,0 0.1,0 0.1,0 0,0 0,0 0,0 0,0 0,0 0,0 0,0 0,0 0,0 0,0 0,0 0,0 0,0 0,0 0,0 0,0 0,0 0,0 0,0 0,0 0,0 0,0 0,0 0,-0.1 0,0 0,-0.1 0,-0.1 0,-0.6 -0.4,-1.7 -1.4,-3.4 -0.6,-1 -0.9,-1.9 -0.8,-2.4 0,0 0,-0.1 0,-0.1 0,0 0,0 0,0 0,0 0,0 0,0 0,0 0,0 0,0 0,0 0,0 0,-0.1 0,0 0,0 0,0 0,0 0,0 0,0 v 0 c 0,0 0,0 0,0 0.6,-0.2 3.6,-0.1 6.9,0.3 5.8,0.7 6.5,1 10,5 1.7,2 3.1,3.2 4.2,3.7 h 2.3 c 0.5,-0.2 0.9,-0.5 0.9,-0.9 0,0 0,0 0,0 0,0 0,0 0,-0.1 0,0 0,0 0,0 0,0 0,0 0,0 v 0 c 0,0 0,0 0,0 -0.2,-0.7 -3.7,-4 -7.8,-7.4 -9.4,-7.9 -10.9,-10.7 -10.9,-21.6 0,-6.5 0.3,-8.2 1.8,-9.9 2.4,-2.6 3.7,-2.6 9.5,0.5 4.4,2.3 5.8,2.5 15.8,2.3 10.7,-0.2 11.1,-0.2 16.5,3 3,1.8 6.7,4.2 8.2,5.3 3.3,2.5 6.7,2.7 7.5,0.4 0.9,-2.7 -5.4,-8 -17.3,-14.4 -11.9,-6.3 -13.1,-8.1 -7.7,-11 3.1,-1.6 3.3,-1.6 8.3,1.1 4,2.2 5.8,2.7 8.3,2.2 l 3.2,-0.7 -7.1,-5.8 c -3.9,-3.2 -7.7,-6.6 -8.4,-7.6 -2.1,-2.8 -6.1,-4.7 -10.1,-4.7 -1.9,0 -3.6,-0.4 -4.1,-0.8 0,0 0,0 0,-0.1 0,0 0,0 0,0 0,0 0,0 0,0 -1.1,-2 2.2,-2.9 11.6,-3.3 12.6,-0.5 14.4,-2 5.6,-4.8 -3.5,-1.1 -8.7,-2.5 -11.6,-3.2 -3.5,-0.8 -5.5,-1.6 -6,-2.5 -0.1,-0.1 -0.1,-0.2 -0.1,-0.3 0,-0.1 0,-0.2 0,-0.3 0,-0.3 0.2,-0.7 0.6,-1 0.6,-0.7 3.4,-0.6 8.2,0.2 5.4,0.9 8.4,1.1 8.9,0.5 0.6,-0.7 -1.9,-2.5 -7.4,-5.6 -5,-2.8 -11.3,-7.3 -14.2,-10.1 -2.8,-2.8 -7.1,-6 -9.4,-7.1 -3.1,-1.4 -4,-2.4 -3.7,-3.6 0.7,-2 5.5,-2 8.6,0 1.3,0.8 4.6,1.4 7.3,1.4 h 5 l -3.3,-1.4 c -3.3,-1.4 -12.4,-7.8 -13.1,-9.3 0,0 0,-0.1 0,-0.1 0,0 0,0 0,0 v 0 c 0,0 0,0 0,0 0,0 0,0 0,0 0,0 0,0 0,0 v 0 c 0.4,-0.3 2.5,-0.4 5,-0.3 l 5,0.3 -7.3,-5.6 c -5.3,-4.1 -8.6,-5.9 -12.4,-6.7 -2.8,-0.6 -6,-1.3 -7.2,-1.6 -3,-0.7 -8.1,-6 -10.1,-10.6 z m -16.6,28.4 c 0.1,0 0.2,0 0.4,0 0.9,0 1.6,0.2 1.9,0.6 0,0 0,0 0,0 0,0 0,0 0,0 0,0.1 0.1,0.1 0.1,0.2 0,0 0,0 0,0.1 0,0 0,0.1 0,0.1 0,0 0,0 0,0.1 0,0 0,0.1 0,0.1 0,0 0,0 0,0.1 -0.2,0.6 -1.3,1.8 -2.4,2.6 -0.8,0.6 -1.3,1 -1.6,0.9 0,0 0,0 -0.1,0 0,0 0,0 0,0 0,0 0,0 0,-0.1 -0.2,-0.2 -0.2,-0.9 -0.2,-2 -0.1,-2.1 0.2,-2.7 1.9,-2.7 m 24.5,2.5 c 0,0 0.1,0 0,0 1.5,0 2.5,0.7 2.6,1.8 0.2,1.4 -0.3,1.8 -2.6,1.8 -1.3,0 -2,-0.1 -2.4,-0.5 -0.3,-0.3 -0.3,-0.7 -0.2,-1.3 0.3,-1.1 1.2,-1.8 2.6,-1.8 m -7.2,0.6 c 1.2,-0.1 1.7,0.6 1.7,2.2 0,1.9 -0.7,2.5 -4.1,3.4 -2.2,0.6 -4.1,0.8 -4.6,0.6 0,0 0,0 0,0 v 0 c -1.2,-1.3 -0.1,-3 2.8,-4.5 1.9,-1.1 3.3,-1.6 4.2,-1.7 m 16.6,0 c 1.8,-0.1 2.1,0.8 1.2,3.4 -0.3,0.9 -1.6,1.6 -2.8,1.6 -1.8,0 -2.2,-0.4 -2,-2.3 0.2,-1.6 1,-2.4 2.8,-2.6 0.3,-0.1 0.5,-0.1 0.8,-0.1 m -27.9,5 c 0.1,0 0.1,0 0.2,0 2.2,0 0.8,4.2 -2,6.1 -2.5,1.7 -5.2,2.4 -6,1.8 0,0 0,0 0,0 0,0 -0.1,-0.1 -0.1,-0.2 0,0 0,0 0,0 0,0 0,0 0,-0.1 0,0 0,0 0,0 0,0 0,0 0,-0.1 0,0 0,-0.1 0,-0.1 v 0 c -0.1,-2.4 5.3,-7.2 7.9,-7.4 m 20.8,9.6 c 1,-0.1 1.7,1 1.3,3.1 -0.2,1.2 -1.3,2 -2.8,2.2 -1.2,0.2 -2,0.1 -2.2,-0.2 0,0 0,0 0,0 0,0 0,0 0,-0.1 0,0 0,0 0,0 0,0 0,0 0,0 0,0 0,-0.1 0,-0.1 -0.1,-0.6 0.4,-1.6 1.7,-3.3 0.6,-1 1.3,-1.5 2,-1.6 m -8.3,0.5 c 0.1,0 0.1,0 0.1,0 2.1,0 2.5,1.9 0.5,3 -0.9,0.5 -1.7,0.9 -2,0.9 0,0 0,0 0,0 v 0 c -0.2,-0.1 -1.3,-0.4 -2.6,-0.9 l -2.3,-0.8 2.6,-1.2 c 1.3,-0.5 2.9,-1 3.7,-1 m 17.8,2.3 c 1,-0.1 2.1,0.1 3.1,0.6 1.9,0.8 2.3,1.5 1.9,3.6 -0.5,2.8 -2.1,3.2 -7.4,1.5 -2.6,-0.8 -2.9,-1.2 -2,-3 0.8,-1.6 2.5,-2.6 4.4,-2.7 m -39.4,0.7 c 0.1,0 0.1,0 0.2,0 3.9,0 4.4,0.7 2.5,3.1 -0.6,0.8 -1.8,2.1 -2.7,2.8 -1.3,1.1 -1.7,1 -2.5,-0.7 -1,-2 -1.3,-3.4 -0.8,-4.2 0.4,-0.7 1.5,-1 3.3,-1 m -10.2,1.7 c 1.6,0 2.7,0.7 4,3 l 1.9,3.2 -2.8,1.1 c -2.5,1 -3,0.8 -5,-2.2 -1.3,-1.9 -1.8,-3.1 -1.5,-3.9 0,-0.1 0.1,-0.2 0.1,-0.2 0,0 0,0 0.1,-0.1 0,0 0,0 0,-0.1 0.5,-0.5 1.4,-0.7 2.9,-0.9 0.1,0.1 0.2,0.1 0.3,0.1 m 60.9,9.6 c 1.8,-0.2 3.7,1.1 3.4,3.2 -0.3,2.6 -3.2,3.4 -5.6,1.5 -1.4,-1.1 -1.5,-1.6 -0.4,-3.2 0.7,-1 1.6,-1.5 2.6,-1.5 m -34.6,4.9 c 0.1,0 0.1,0 0.2,0 0.2,0 0.3,0 0.4,0.1 0.1,0 0.2,0.1 0.2,0.1 0,0 0,0 0.1,0.1 0,0 0,0 0,0 0,0 0,0 0,0 0,0 0,0 0,0 0.3,0.4 0.4,1 0.3,1.8 -0.4,2.7 -2.2,3.5 -2.9,1.3 -0.6,-1.9 0.1,-3.3 1.7,-3.4 m -11.5,2.1 c 0.8,-0.1 2.1,0.4 3.3,1.5 0.9,0.7 1.2,1.4 1.2,1.9 0,0 0,0.1 0,0.2 0,0 0,0.1 0,0.1 0,0 0,0.1 0,0.1 0,0 0,0.1 -0.1,0.1 0,0 0,0 0,0 0,0 0,0 0,0 0,0 -0.1,0.1 -0.1,0.1 0,0 0,0 0,0 -0.5,0.4 -1.7,0.3 -2.9,-0.7 -1.1,-0.8 -1.9,-1.9 -2,-2.4 0,0 0,0 0,0 v 0 c -0.2,-0.5 0.1,-0.8 0.6,-0.9 m 18.3,0.4 c 0.4,0 0.7,0.3 1.4,1 0.8,0.9 1.7,2.5 2,3.7 0.8,2.8 -0.5,4 -3,2.7 -2.7,-1.4 -3.3,-3.5 -1.8,-6 0.7,-0.9 1.1,-1.4 1.4,-1.4 m 6.5,3.8 c 0.7,-0.1 1.6,0.9 1.8,2.6 0.1,1 0,1.9 -0.3,2.1 0,0 0,0 0,0 0,0 0,0 0,0 0,0 0,0 0,0 0,0 0,0 0,0 v 0 0 0 0 c -1.3,0 -2.1,-1.2 -2.1,-3.3 -0.2,-0.8 0.1,-1.3 0.6,-1.4 m -40.3,4 c 1.3,0 2.5,0.1 3.3,0.2 1.3,0.3 2.1,0.6 2.5,1.1 0.1,0.1 0.2,0.2 0.2,0.3 0,0.1 0,0.1 0,0.2 0,0.1 0,0.2 0,0.3 -0.2,0.8 -1.3,1.8 -3.4,2.9 -1.7,0.9 -4.7,2 -6.6,2.3 -3.1,0.6 -3.5,0.4 -4.8,-2.4 -0.8,-1.6 -1.4,-3.2 -1.4,-3.5 0,0 0,0 0,0 0,0 0,0 0,0 0,0 0,0 0,0 0,0 0,0 0,0 0,0 0,0 0,0 0.8,-0.7 6.2,-1.3 10.2,-1.4 m 62.4,9.1 c 3.6,-0.2 5.6,2.3 1.6,5.3 -2.5,2 -6.3,2 -8.5,0.2 -1.7,-1.3 -1.6,-1.5 1.4,-3.6 2,-1.2 3.9,-1.8 5.5,-1.9 m 13.2,2.9 c 0.1,0 0.1,0 0.2,0 0.5,0 1.8,0.6 2.7,1.4 1.8,1.4 1.7,1.5 -0.4,4.1 -1.1,1.3 -2.3,2.4 -2.7,2.4 0,0 0,0 0,0 v 0 0 c 0,0 0,0 0,0 -0.3,-0.1 -1.9,-0.3 -3.5,-0.6 -1.8,-0.3 -3,-1 -3,-1.9 0,0 0,-0.1 0,-0.1 0.3,-1.5 4.8,-5.1 6.7,-5.3 m -66.2,4 c 0.2,0 0.4,0 0.6,0 2.5,0 3.9,2 3.9,5.8 0,5 -3.1,4.6 -4.5,-0.6 -1.3,-4.5 -1.4,-5.1 0,-5.2 m 18.9,1.5 c 1.5,0 5.1,0.8 5.6,1.4 0,0 0,0 0,0 0,0 0,0 0,0 0,0 0,0 0,0 v 0 0 c 0,0 0,0 0,0 0,0 0,0 0,0 0,0.4 -1,2 -2.2,3.5 l -2.2,2.9 -1.1,-3.7 c -0.6,-1.9 -0.9,-3.5 -0.8,-4 0,0 0,0 0,0 0,0 0,0 0,0 v 0 c 0,0 0,0 0,0 0,0 0,0 0,0 0,0 0,0 0,0 0,0 0,0 0,0 v 0 c 0,0 0,0 0,0 0.3,-0.1 0.5,-0.1 0.7,-0.1 m -9.2,1.6 c 0.3,0 0.7,0 1.3,0.1 1.2,0.2 2.3,1.2 2.5,2.2 0.2,1.3 0.1,2.2 -0.2,2.6 0,0 -0.1,0.1 -0.1,0.1 0,0 -0.1,0.1 -0.1,0.1 0,0 0,0 0,0 -0.1,0 -0.1,0.1 -0.2,0.1 0,0 -0.1,0 -0.1,0 -0.1,0 -0.1,0 -0.2,0 -0.6,-0.1 -1.4,-0.8 -2.1,-2.3 -0.8,-1.7 -1.2,-2.5 -1,-2.8 0,0 0,-0.1 0.1,-0.1 -0.1,0.1 0,0 0.1,0"
       id="path856"
       inkscape:connector-curvature="0"
       style="fill:#42a047" /></g></svg>