<?xml version="1.0" encoding="UTF-8" standalone="no"?>
<!-- Generator: Adobe Illustrator 19.0.0, SVG Export Plug-In . SVG Version: 6.00 Build 0)  -->

<svg
   xmlns:dc="http://purl.org/dc/elements/1.1/"
   xmlns:cc="http://creativecommons.org/ns#"
   xmlns:rdf="http://www.w3.org/1999/02/22-rdf-syntax-ns#"
   xmlns:svg="http://www.w3.org/2000/svg"
   xmlns="http://www.w3.org/2000/svg"
   xmlns:sodipodi="http://sodipodi.sourceforge.net/DTD/sodipodi-0.dtd"
   xmlns:inkscape="http://www.inkscape.org/namespaces/inkscape"
   version="1.1"
   id="Layer_1"
   x="0px"
   y="0px"
   viewBox="0 0 297 297"
   style="enable-background:new 0 0 297 297;"
   xml:space="preserve"
   sodipodi:docname="sparkling-wine.svg"
   inkscape:version="0.92.3 (2405546, 2018-03-11)"><metadata
   id="metadata63"><rdf:RDF><cc:Work
       rdf:about=""><dc:format>image/svg+xml</dc:format><dc:type
         rdf:resource="http://purl.org/dc/dcmitype/StillImage" /><dc:title></dc:title></cc:Work></rdf:RDF></metadata><defs
   id="defs61" /><sodipodi:namedview
   pagecolor="#ffffff"
   bordercolor="#666666"
   borderopacity="1"
   objecttolerance="10"
   gridtolerance="10"
   guidetolerance="10"
   inkscape:pageopacity="0"
   inkscape:pageshadow="2"
   inkscape:window-width="1920"
   inkscape:window-height="1016"
   id="namedview59"
   showgrid="false"
   inkscape:zoom="0.79461279"
   inkscape:cx="327.20339"
   inkscape:cy="76.766947"
   inkscape:window-x="0"
   inkscape:window-y="27"
   inkscape:window-maximized="1"
   inkscape:current-layer="Layer_1" />
<g
   id="g26"
   style="opacity:0.98">
	<g
   id="g6"
   style="">
		<g
   id="g4"
   style="">
			<circle
   style="fill:#e3a957;fill-opacity:1"
   cx="148.5"
   cy="148.5"
   r="148.5"
   id="circle2" />
		</g>
	</g>
	<path
   style="fill:#000000;opacity:0.15"
   d="M212.757,65.72l-67.211,136.057c2.998,4.695,4.812,10.252,5.076,16.143   c0.09,2.004-0.063,3.97-0.428,5.878c0.444,1.931,0.719,3.922,0.81,5.954c0.724,16.175-14.284,29.951-29.951,29.951   c-1.36,0-2.688-0.099-3.987-0.273l-1.882,3.81l33.785,33.754c81.316-0.252,147.238-65.858,148.013-147.05L212.757,65.72z"
   id="path8" />
	<g
   id="g12"
   style="">
		<path
   style="fill:#ECF0F1"
   d="M222,110.265c0-12.958-3.358-28.876-9.243-44.545H84.243C78.358,81.389,75,97.308,75,110.265    c0,38.202,29.147,69.587,66.414,73.153v67.691h-21.257c-3.913,0-7.086,3.172-7.086,7.086c0,3.913,3.172,7.086,7.086,7.086h21.257    h14.171h21.257c3.913,0,7.086-3.172,7.086-7.086c0-3.913-3.172-7.086-7.086-7.086h-21.257v-67.691    C192.853,179.852,222,148.467,222,110.265z"
   id="path10" />
	</g>
	<g
   id="g16"
   style="">
		<path
   style="fill:#DEE1E2"
   d="M222,110.265c0-12.958-3.358-28.876-9.243-44.545h-64.59v199.56h7.419h21.257    c3.913,0,7.085-3.172,7.085-7.086s-3.172-7.086-7.085-7.086h-21.257v-67.691C192.853,179.852,222,148.467,222,110.265z"
   id="path14" />
	</g>
	<g
   id="g20"
   style="">
		<path
   style="fill:#f0c82a;fill-opacity:1"
   d="M87.162,112.661c0,33.876,27.462,61.338,61.338,61.338s61.338-27.462,61.338-61.338    C209.838,112.661,87.162,112.661,87.162,112.661z"
   id="path18" />
	</g>
	<g
   id="g24"
   style="">
		<path
   style="fill:#000000;fill-opacity:1;opacity:0.15"
   d="M148.167,112.661v61.33c0.112,0.001,0.221,0.008,0.333,0.008c33.876,0,61.338-27.462,61.338-61.338    C209.838,112.661,148.167,112.661,148.167,112.661z"
   id="path22" />
	</g>
</g>
<g
   id="g28">
</g>
<g
   id="g30">
</g>
<g
   id="g32">
</g>
<g
   id="g34">
</g>
<g
   id="g36">
</g>
<g
   id="g38">
</g>
<g
   id="g40">
</g>
<g
   id="g42">
</g>
<g
   id="g44">
</g>
<g
   id="g46">
</g>
<g
   id="g48">
</g>
<g
   id="g50">
</g>
<g
   id="g52">
</g>
<g
   id="g54">
</g>
<g
   id="g56">
</g>
</svg>